<?xml version="1.0" encoding="UTF-8" standalone="no"?>
<!DOCTYPE svg PUBLIC "-//W3C//DTD SVG 20010904//EN" "http://www.w3.org/TR/2001/REC-SVG-20010904/DTD/svg10.dtd">

<svg xmlns="http://www.w3.org/2000/svg"
	viewBox="0 0 840 981">
	<path d="M 95.00,11.00
			C 95.00,11.00 95.00,221.00 95.00,221.00
				87.71,222.13 80.93,225.25 74.00,227.66
				74.00,227.66 38.00,239.67 38.00,239.67
				38.00,239.67 6.04,250.99 6.04,250.99
				0.04,254.96 0.01,260.57 0.00,267.00
				0.00,267.00 0.00,841.00 0.00,841.00
				0.00,843.52 -0.11,846.60 0.65,849.00
				2.15,853.76 5.85,857.08 11.00,856.77
				11.00,856.77 43.00,847.00 43.00,847.00
				43.00,847.00 178.00,802.00 178.00,802.00
				178.00,802.00 274.00,769.67 274.00,769.67
				274.00,769.67 336.00,748.95 336.00,748.95
				336.00,748.95 387.00,731.58 387.00,731.58
				387.00,731.58 407.00,724.66 407.00,724.66
				410.03,723.60 413.85,721.77 417.00,721.79
				420.19,721.81 426.73,724.25 430.00,725.33
				430.00,725.33 452.00,732.33 452.00,732.33
				452.00,732.33 521.00,754.28 521.00,754.28
				521.00,754.28 586.00,774.98 586.00,774.98
				586.00,774.98 741.00,824.02 741.00,824.02
				741.00,824.02 805.00,844.34 805.00,844.34
				805.00,844.34 840.00,855.00 840.00,855.00
				840.00,855.00 840.00,274.00 840.00,274.00
				840.00,271.96 840.26,268.37 839.01,266.70
				837.08,264.13 824.59,261.09 821.00,259.98
				821.00,259.98 776.00,245.58 776.00,245.58
				772.28,244.49 761.97,241.84 760.02,238.73
				758.79,236.76 759.00,233.28 759.00,231.00
				759.00,231.00 759.00,15.00 759.00,15.00
				759.00,12.65 759.08,9.23 758.43,7.02
				757.03,2.26 752.76,0.09 748.00,0.56
				748.00,0.56 724.00,8.00 724.00,8.00
				724.00,8.00 617.00,44.00 617.00,44.00
				617.00,44.00 468.00,95.34 468.00,95.34
				468.00,95.34 421.00,111.67 421.00,111.67
				417.16,112.95 402.98,118.07 400.00,118.11
				396.25,118.16 380.70,111.90 376.00,110.33
				376.00,110.33 317.00,89.34 317.00,89.34
				317.00,89.34 170.00,37.31 170.00,37.31
				170.00,37.31 124.00,20.95 124.00,20.95
				124.00,20.95 95.00,11.00 95.00,11.00 Z
			M 738.00,25.00
			C 738.00,25.00 739.00,48.00 739.00,48.00
				739.00,48.00 739.00,91.00 739.00,91.00
				739.00,91.00 739.00,233.00 739.00,233.00
				739.00,233.00 707.00,223.42 707.00,223.42
				707.00,223.42 627.00,197.67 627.00,197.67
				627.00,197.67 425.00,133.00 425.00,133.00
				430.50,128.75 450.32,123.24 458.00,120.67
				458.00,120.67 524.00,98.00 524.00,98.00
				524.00,98.00 738.00,25.00 738.00,25.00 Z
			M 401.00,141.00
			C 401.00,141.00 401.00,706.00 401.00,706.00
				401.00,706.00 372.00,715.33 372.00,715.33
				372.00,715.33 319.00,733.00 319.00,733.00
				319.00,733.00 121.00,799.00 121.00,799.00
				121.00,799.00 56.00,820.67 56.00,820.67
				56.00,820.67 21.00,832.00 21.00,832.00
				21.00,832.00 21.00,276.00 21.00,276.00
				21.00,273.86 20.77,270.29 22.02,268.51
				23.87,265.87 38.22,261.93 42.00,260.67
				42.00,260.67 109.00,238.33 109.00,238.33
				109.00,238.33 306.00,172.00 306.00,172.00
				306.00,172.00 368.00,151.33 368.00,151.33
				368.00,151.33 401.00,141.00 401.00,141.00 Z
			M 756.00,675.00
			C 756.00,675.00 714.00,663.14 714.00,663.14
				709.50,661.85 701.11,660.34 698.99,655.87
				698.99,655.87 693.12,635.00 693.12,635.00
				693.12,635.00 684.00,602.00 684.00,602.00
				683.01,598.56 680.58,587.80 678.44,585.70
				677.21,584.50 675.59,583.96 674.00,583.44
				674.00,583.44 597.00,559.66 597.00,559.66
				597.00,559.66 575.00,552.86 575.00,552.86
				572.97,552.28 568.08,550.47 566.22,550.92
				563.00,551.70 559.73,561.88 558.42,565.00
				558.42,565.00 546.20,595.00 546.20,595.00
				545.09,597.78 542.33,605.68 540.35,607.39
				537.15,610.16 529.67,606.50 526.00,605.42
				526.00,605.42 484.00,593.00 484.00,593.00
				485.16,586.60 490.56,574.59 493.20,568.00
				493.20,568.00 511.80,522.00 511.80,522.00
				511.80,522.00 571.80,373.00 571.80,373.00
				571.80,373.00 593.60,319.00 593.60,319.00
				595.01,315.48 599.74,301.60 602.41,300.11
				605.05,298.65 612.97,301.99 616.00,302.86
				616.00,302.86 642.00,310.98 642.00,310.98
				645.04,311.92 652.51,313.81 654.86,315.27
				659.22,318.00 662.45,334.56 663.88,340.00
				663.88,340.00 682.37,407.00 682.37,407.00
				682.37,407.00 705.58,491.00 705.58,491.00
				705.58,491.00 734.42,596.00 734.42,596.00
				734.42,596.00 748.42,647.00 748.42,647.00
				748.42,647.00 756.00,675.00 756.00,675.00 Z
			M 147.00,329.00
			C 147.40,333.78 148.53,338.61 150.52,343.00
				155.46,353.90 168.12,363.69 180.00,365.68
				195.81,368.32 223.14,359.29 235.00,348.82
				242.48,342.21 248.81,332.21 244.52,322.02
				243.33,319.19 241.84,317.24 238.96,316.01
				232.15,313.10 214.23,319.46 207.00,321.58
				198.25,324.13 173.64,331.71 166.00,331.96
				159.55,332.17 153.23,330.40 147.00,329.00 Z
			M 263.00,406.00
			C 247.16,439.63 231.80,473.87 212.99,506.00
				200.70,527.00 162.20,581.15 146.63,602.00
				146.63,602.00 104.85,653.00 104.85,653.00
				104.85,653.00 81.00,680.00 81.00,680.00
				86.40,679.98 96.20,679.23 101.00,676.95
				109.72,672.81 127.57,652.91 134.42,645.00
				134.42,645.00 166.57,608.00 166.57,608.00
				166.57,608.00 204.14,559.00 204.14,559.00
				210.02,550.80 227.99,525.89 231.00,518.00
				231.00,518.00 271.00,548.12 271.00,548.12
				285.33,558.67 307.63,571.30 324.00,578.42
				324.00,578.42 347.00,587.67 347.00,587.67
				349.22,588.40 354.31,590.52 356.36,588.94
				358.19,587.53 357.17,583.01 356.87,581.00
				355.97,574.98 353.35,561.80 347.89,558.71
				347.89,558.71 330.00,551.15 330.00,551.15
				330.00,551.15 287.00,533.14 287.00,533.14
				287.00,533.14 254.00,518.58 254.00,518.58
				248.44,516.16 243.00,513.12 237.00,512.00
				237.00,512.00 260.99,472.00 260.99,472.00
				260.99,472.00 292.25,413.00 292.25,413.00
				292.25,413.00 309.39,377.00 309.39,377.00
				309.39,377.00 310.00,359.00 310.00,359.00
				303.36,359.60 297.18,362.46 291.00,364.81
				291.00,364.81 245.00,386.67 245.00,386.67
				245.00,386.67 219.00,395.34 219.00,395.34
				219.00,395.34 157.00,416.33 157.00,416.33
				157.00,416.33 118.00,427.00 118.00,427.00
				114.84,427.63 101.28,429.75 99.57,431.16
				97.69,432.72 97.96,435.84 98.33,438.00
				99.40,444.27 103.48,449.41 109.00,452.44
				119.12,458.01 131.27,457.14 142.00,454.47
				146.23,453.42 151.38,452.32 154.77,449.36
				160.79,444.13 154.78,438.72 163.02,434.80
				163.02,434.80 205.00,422.98 205.00,422.98
				205.00,422.98 240.00,411.66 240.00,411.66
				247.33,409.32 255.31,406.36 263.00,406.00 Z
			M 627.00,396.00
			C 627.00,396.00 611.58,433.00 611.58,433.00
				611.58,433.00 586.00,495.00 586.00,495.00
				586.00,495.00 602.00,500.02 602.00,500.02
				602.00,500.02 661.00,518.00 661.00,518.00
				661.00,518.00 652.42,486.00 652.42,486.00
				652.42,486.00 639.71,440.00 639.71,440.00
				639.71,440.00 627.00,396.00 627.00,396.00 Z
			M 596.00,856.00
			C 598.11,861.73 607.94,877.83 611.60,884.00
				612.88,886.15 617.81,893.28 617.31,895.47
				616.93,897.17 614.36,898.55 612.99,899.40
				612.99,899.40 599.00,907.30 599.00,907.30
				578.68,918.46 560.14,928.26 538.00,935.67
				502.36,947.59 481.72,953.40 444.00,957.17
				444.00,957.17 423.00,959.04 423.00,959.04
				423.00,959.04 410.00,959.04 410.00,959.04
				410.00,959.04 400.00,960.00 400.00,960.00
				354.14,960.53 308.84,949.52 266.00,933.68
				246.05,926.31 228.89,918.49 210.00,908.74
				210.00,908.74 189.00,897.27 189.00,897.27
				183.39,894.47 176.11,891.59 171.74,898.06
				170.39,900.05 169.88,902.63 170.24,905.00
				171.45,913.00 187.28,921.16 194.00,925.00
				216.64,937.94 251.86,952.04 277.00,959.42
				307.95,968.51 337.65,976.87 370.00,979.09
				370.00,979.09 382.00,980.00 382.00,980.00
				382.00,980.00 428.00,980.00 428.00,980.00
				444.36,979.97 460.96,976.62 477.00,973.61
				503.96,968.56 526.21,963.15 552.00,953.42
				570.53,946.43 590.82,937.25 608.00,927.42
				613.82,924.09 624.60,918.49 629.00,914.00
				629.00,914.00 652.00,949.00 652.00,949.00
				652.00,949.00 666.00,908.00 666.00,908.00
				666.00,908.00 676.00,878.00 676.00,878.00
				676.00,878.00 681.00,863.00 681.00,863.00
				681.00,863.00 645.00,860.09 645.00,860.09
				645.00,860.09 596.00,856.00 596.00,856.00 Z" />
</svg>
